<mxfile host="app.diagrams.net" modified="2022-08-21T18:06:43.959Z" agent="5.0 (Windows NT 10.0; Win64; x64) AppleWebKit/537.36 (KHTML, like Gecko) Chrome/104.0.0.0 Safari/537.36" etag="qoIhtWc2hKhZEtvyXZ8W" version="20.2.4" type="github">
  <diagram id="C5RBs43oDa-KdzZeNtuy" name="Page-1">
    <mxGraphModel dx="1422" dy="762" grid="1" gridSize="10" guides="1" tooltips="1" connect="1" arrows="1" fold="1" page="1" pageScale="1" pageWidth="827" pageHeight="1169" math="0" shadow="0">
      <root>
        <mxCell id="WIyWlLk6GJQsqaUBKTNV-0" />
        <mxCell id="WIyWlLk6GJQsqaUBKTNV-1" parent="WIyWlLk6GJQsqaUBKTNV-0" />
        <mxCell id="zkfFHV4jXpPFQw0GAbJ--12" value="" style="endArrow=block;endSize=10;endFill=0;shadow=0;strokeWidth=1;rounded=0;edgeStyle=elbowEdgeStyle;elbow=vertical;" parent="WIyWlLk6GJQsqaUBKTNV-1" source="zkfFHV4jXpPFQw0GAbJ--6" edge="1">
          <mxGeometry width="160" relative="1" as="geometry">
            <mxPoint x="200" y="203" as="sourcePoint" />
            <mxPoint x="300" y="258" as="targetPoint" />
          </mxGeometry>
        </mxCell>
        <mxCell id="zkfFHV4jXpPFQw0GAbJ--16" value="" style="endArrow=block;endSize=10;endFill=0;shadow=0;strokeWidth=1;rounded=0;edgeStyle=elbowEdgeStyle;elbow=vertical;" parent="WIyWlLk6GJQsqaUBKTNV-1" source="zkfFHV4jXpPFQw0GAbJ--13" edge="1">
          <mxGeometry width="160" relative="1" as="geometry">
            <mxPoint x="210" y="373" as="sourcePoint" />
            <mxPoint x="300" y="258" as="targetPoint" />
          </mxGeometry>
        </mxCell>
        <mxCell id="zkfFHV4jXpPFQw0GAbJ--26" value="" style="endArrow=open;shadow=0;strokeWidth=1;rounded=0;endFill=1;edgeStyle=elbowEdgeStyle;elbow=vertical;" parent="WIyWlLk6GJQsqaUBKTNV-1" target="zkfFHV4jXpPFQw0GAbJ--17" edge="1">
          <mxGeometry x="0.5" y="41" relative="1" as="geometry">
            <mxPoint x="380" y="189" as="sourcePoint" />
            <mxPoint x="540" y="192" as="targetPoint" />
            <mxPoint x="-40" y="32" as="offset" />
          </mxGeometry>
        </mxCell>
        <mxCell id="zkfFHV4jXpPFQw0GAbJ--27" value="0..1" style="resizable=0;align=left;verticalAlign=bottom;labelBackgroundColor=none;fontSize=12;" parent="zkfFHV4jXpPFQw0GAbJ--26" connectable="0" vertex="1">
          <mxGeometry x="-1" relative="1" as="geometry">
            <mxPoint y="4" as="offset" />
          </mxGeometry>
        </mxCell>
        <mxCell id="zkfFHV4jXpPFQw0GAbJ--28" value="1" style="resizable=0;align=right;verticalAlign=bottom;labelBackgroundColor=none;fontSize=12;" parent="zkfFHV4jXpPFQw0GAbJ--26" connectable="0" vertex="1">
          <mxGeometry x="1" relative="1" as="geometry">
            <mxPoint x="-7" y="4" as="offset" />
          </mxGeometry>
        </mxCell>
        <mxCell id="zkfFHV4jXpPFQw0GAbJ--29" value="lives at" style="text;html=1;resizable=0;points=[];;align=center;verticalAlign=middle;labelBackgroundColor=none;rounded=0;shadow=0;strokeWidth=1;fontSize=12;" parent="zkfFHV4jXpPFQw0GAbJ--26" vertex="1" connectable="0">
          <mxGeometry x="0.5" y="49" relative="1" as="geometry">
            <mxPoint x="-38" y="40" as="offset" />
          </mxGeometry>
        </mxCell>
        <mxCell id="eJkYo1yy2GzFZduPrZ3K-6" style="edgeStyle=orthogonalEdgeStyle;rounded=0;orthogonalLoop=1;jettySize=auto;html=1;" edge="1" parent="WIyWlLk6GJQsqaUBKTNV-1" source="eJkYo1yy2GzFZduPrZ3K-0" target="eJkYo1yy2GzFZduPrZ3K-7">
          <mxGeometry relative="1" as="geometry">
            <mxPoint x="385" y="140" as="targetPoint" />
          </mxGeometry>
        </mxCell>
        <mxCell id="eJkYo1yy2GzFZduPrZ3K-0" value="&lt;font style=&quot;font-size: 14px;&quot;&gt;Usuario&lt;/font&gt;" style="whiteSpace=wrap;html=1;aspect=fixed;strokeWidth=2;" vertex="1" parent="WIyWlLk6GJQsqaUBKTNV-1">
          <mxGeometry x="340" y="30" width="90" height="90" as="geometry" />
        </mxCell>
        <mxCell id="eJkYo1yy2GzFZduPrZ3K-1" value="&lt;font style=&quot;font-size: 14px;&quot;&gt;Login&lt;/font&gt;" style="rounded=0;whiteSpace=wrap;html=1;strokeWidth=2;" vertex="1" parent="WIyWlLk6GJQsqaUBKTNV-1">
          <mxGeometry x="340" y="30" width="90" height="20" as="geometry" />
        </mxCell>
        <mxCell id="eJkYo1yy2GzFZduPrZ3K-7" value="&lt;div&gt;&lt;span style=&quot;font-size: 14px;&quot;&gt;&lt;br&gt;&lt;/span&gt;&lt;/div&gt;" style="whiteSpace=wrap;html=1;aspect=fixed;strokeWidth=2;align=left;" vertex="1" parent="WIyWlLk6GJQsqaUBKTNV-1">
          <mxGeometry x="305" y="140" width="160" height="160" as="geometry" />
        </mxCell>
        <mxCell id="eJkYo1yy2GzFZduPrZ3K-9" value="&lt;font style=&quot;font-size: 14px;&quot;&gt;Inicio&lt;/font&gt;" style="rounded=0;whiteSpace=wrap;html=1;strokeWidth=2;" vertex="1" parent="WIyWlLk6GJQsqaUBKTNV-1">
          <mxGeometry x="305" y="140" width="160" height="30" as="geometry" />
        </mxCell>
        <mxCell id="eJkYo1yy2GzFZduPrZ3K-35" style="edgeStyle=orthogonalEdgeStyle;rounded=1;orthogonalLoop=1;jettySize=auto;html=1;fontSize=14;fillColor=#dae8fc;gradientColor=#7ea6e0;strokeColor=#6c8ebf;" edge="1" parent="WIyWlLk6GJQsqaUBKTNV-1" source="eJkYo1yy2GzFZduPrZ3K-10">
          <mxGeometry relative="1" as="geometry">
            <mxPoint x="140" y="320" as="targetPoint" />
          </mxGeometry>
        </mxCell>
        <mxCell id="eJkYo1yy2GzFZduPrZ3K-10" value="&lt;span style=&quot;background-color: initial;&quot;&gt;Categorías&lt;/span&gt;" style="rounded=0;whiteSpace=wrap;html=1;fontSize=14;strokeWidth=1;align=center;" vertex="1" parent="WIyWlLk6GJQsqaUBKTNV-1">
          <mxGeometry x="310" y="180" width="150" height="30" as="geometry" />
        </mxCell>
        <mxCell id="eJkYo1yy2GzFZduPrZ3K-36" style="edgeStyle=orthogonalEdgeStyle;rounded=1;orthogonalLoop=1;jettySize=auto;html=1;exitX=1;exitY=0.5;exitDx=0;exitDy=0;fontSize=14;startArrow=none;fillColor=#f8cecc;gradientColor=#ea6b66;strokeColor=#b85450;" edge="1" parent="WIyWlLk6GJQsqaUBKTNV-1" source="eJkYo1yy2GzFZduPrZ3K-44" target="eJkYo1yy2GzFZduPrZ3K-16">
          <mxGeometry relative="1" as="geometry">
            <Array as="points">
              <mxPoint x="620" y="235" />
            </Array>
          </mxGeometry>
        </mxCell>
        <mxCell id="eJkYo1yy2GzFZduPrZ3K-11" value="&lt;span style=&quot;background-color: initial;&quot;&gt;Vender&lt;/span&gt;" style="rounded=0;whiteSpace=wrap;html=1;fontSize=14;strokeWidth=1;align=center;" vertex="1" parent="WIyWlLk6GJQsqaUBKTNV-1">
          <mxGeometry x="310" y="220" width="150" height="30" as="geometry" />
        </mxCell>
        <mxCell id="eJkYo1yy2GzFZduPrZ3K-13" style="edgeStyle=orthogonalEdgeStyle;rounded=1;orthogonalLoop=1;jettySize=auto;html=1;exitX=1;exitY=0.5;exitDx=0;exitDy=0;entryX=1;entryY=0.122;entryDx=0;entryDy=0;entryPerimeter=0;fontSize=14;fillColor=#fff2cc;gradientColor=#ffd966;strokeColor=#d6b656;" edge="1" parent="WIyWlLk6GJQsqaUBKTNV-1" source="eJkYo1yy2GzFZduPrZ3K-12" target="eJkYo1yy2GzFZduPrZ3K-0">
          <mxGeometry relative="1" as="geometry" />
        </mxCell>
        <mxCell id="eJkYo1yy2GzFZduPrZ3K-12" value="&lt;div style=&quot;&quot;&gt;&lt;span style=&quot;background-color: initial;&quot;&gt;Cerrar sesión&lt;/span&gt;&lt;/div&gt;" style="rounded=0;whiteSpace=wrap;html=1;fontSize=14;strokeWidth=1;align=center;" vertex="1" parent="WIyWlLk6GJQsqaUBKTNV-1">
          <mxGeometry x="310" y="260" width="150" height="30" as="geometry" />
        </mxCell>
        <mxCell id="eJkYo1yy2GzFZduPrZ3K-15" value="" style="rounded=0;whiteSpace=wrap;html=1;fontSize=14;strokeWidth=2;align=left;" vertex="1" parent="WIyWlLk6GJQsqaUBKTNV-1">
          <mxGeometry x="510" y="320" width="220" height="320" as="geometry" />
        </mxCell>
        <mxCell id="eJkYo1yy2GzFZduPrZ3K-16" value="Información del Producto" style="rounded=0;whiteSpace=wrap;html=1;fontSize=14;strokeWidth=2;" vertex="1" parent="WIyWlLk6GJQsqaUBKTNV-1">
          <mxGeometry x="510" y="320" width="220" height="30" as="geometry" />
        </mxCell>
        <mxCell id="eJkYo1yy2GzFZduPrZ3K-61" style="edgeStyle=orthogonalEdgeStyle;rounded=1;orthogonalLoop=1;jettySize=auto;html=1;exitX=1;exitY=0.5;exitDx=0;exitDy=0;entryX=1;entryY=0.5;entryDx=0;entryDy=0;fontSize=14;fillColor=#dae8fc;strokeColor=#6c8ebf;strokeWidth=2;" edge="1" parent="WIyWlLk6GJQsqaUBKTNV-1" source="eJkYo1yy2GzFZduPrZ3K-17" target="eJkYo1yy2GzFZduPrZ3K-56">
          <mxGeometry relative="1" as="geometry">
            <Array as="points">
              <mxPoint x="740" y="375" />
              <mxPoint x="740" y="835" />
            </Array>
          </mxGeometry>
        </mxCell>
        <mxCell id="eJkYo1yy2GzFZduPrZ3K-17" value="&lt;span style=&quot;background-color: initial;&quot;&gt;Nombre&lt;/span&gt;" style="rounded=0;whiteSpace=wrap;html=1;fontSize=14;strokeWidth=1;align=center;" vertex="1" parent="WIyWlLk6GJQsqaUBKTNV-1">
          <mxGeometry x="525" y="360" width="190" height="30" as="geometry" />
        </mxCell>
        <mxCell id="eJkYo1yy2GzFZduPrZ3K-67" style="edgeStyle=orthogonalEdgeStyle;rounded=1;orthogonalLoop=1;jettySize=auto;html=1;exitX=1;exitY=0.5;exitDx=0;exitDy=0;entryX=1;entryY=0.5;entryDx=0;entryDy=0;fontSize=14;sketch=0;shadow=0;strokeColor=#82b366;fillColor=#d5e8d4;strokeWidth=2;" edge="1" parent="WIyWlLk6GJQsqaUBKTNV-1" source="eJkYo1yy2GzFZduPrZ3K-19" target="eJkYo1yy2GzFZduPrZ3K-63">
          <mxGeometry relative="1" as="geometry">
            <Array as="points">
              <mxPoint x="750" y="415" />
              <mxPoint x="750" y="875" />
            </Array>
          </mxGeometry>
        </mxCell>
        <mxCell id="eJkYo1yy2GzFZduPrZ3K-19" value="&lt;span style=&quot;background-color: initial;&quot;&gt;Imágenes&lt;/span&gt;" style="rounded=0;whiteSpace=wrap;html=1;fontSize=14;strokeWidth=1;align=center;" vertex="1" parent="WIyWlLk6GJQsqaUBKTNV-1">
          <mxGeometry x="525" y="400" width="190" height="30" as="geometry" />
        </mxCell>
        <mxCell id="eJkYo1yy2GzFZduPrZ3K-71" style="edgeStyle=orthogonalEdgeStyle;rounded=1;sketch=0;orthogonalLoop=1;jettySize=auto;html=1;exitX=1;exitY=0.5;exitDx=0;exitDy=0;entryX=1;entryY=0.5;entryDx=0;entryDy=0;shadow=0;fontSize=14;strokeColor=#d79b00;fillColor=#ffe6cc;strokeWidth=2;" edge="1" parent="WIyWlLk6GJQsqaUBKTNV-1" source="eJkYo1yy2GzFZduPrZ3K-20" target="eJkYo1yy2GzFZduPrZ3K-57">
          <mxGeometry relative="1" as="geometry">
            <Array as="points">
              <mxPoint x="760" y="455" />
              <mxPoint x="760" y="915" />
            </Array>
          </mxGeometry>
        </mxCell>
        <mxCell id="eJkYo1yy2GzFZduPrZ3K-20" value="&lt;div style=&quot;&quot;&gt;&lt;span style=&quot;background-color: initial;&quot;&gt;Descripción&lt;/span&gt;&lt;/div&gt;" style="rounded=0;whiteSpace=wrap;html=1;fontSize=14;strokeWidth=1;align=center;" vertex="1" parent="WIyWlLk6GJQsqaUBKTNV-1">
          <mxGeometry x="525" y="440" width="190" height="30" as="geometry" />
        </mxCell>
        <mxCell id="eJkYo1yy2GzFZduPrZ3K-72" style="edgeStyle=orthogonalEdgeStyle;rounded=1;sketch=0;orthogonalLoop=1;jettySize=auto;html=1;exitX=1;exitY=0.5;exitDx=0;exitDy=0;entryX=1;entryY=0.5;entryDx=0;entryDy=0;shadow=0;fontSize=14;strokeColor=#9673a6;fillColor=#e1d5e7;strokeWidth=2;" edge="1" parent="WIyWlLk6GJQsqaUBKTNV-1" source="eJkYo1yy2GzFZduPrZ3K-21" target="eJkYo1yy2GzFZduPrZ3K-58">
          <mxGeometry relative="1" as="geometry">
            <Array as="points">
              <mxPoint x="770" y="495" />
              <mxPoint x="770" y="955" />
            </Array>
          </mxGeometry>
        </mxCell>
        <mxCell id="eJkYo1yy2GzFZduPrZ3K-21" value="&lt;div style=&quot;&quot;&gt;&lt;span style=&quot;background-color: initial;&quot;&gt;Costo&lt;/span&gt;&lt;/div&gt;" style="rounded=0;whiteSpace=wrap;html=1;fontSize=14;strokeWidth=1;align=center;" vertex="1" parent="WIyWlLk6GJQsqaUBKTNV-1">
          <mxGeometry x="525" y="480" width="190" height="30" as="geometry" />
        </mxCell>
        <mxCell id="eJkYo1yy2GzFZduPrZ3K-76" style="edgeStyle=orthogonalEdgeStyle;rounded=1;sketch=0;orthogonalLoop=1;jettySize=auto;html=1;exitX=1;exitY=0.5;exitDx=0;exitDy=0;entryX=1;entryY=0.5;entryDx=0;entryDy=0;shadow=0;fontSize=14;strokeColor=#FF99CC;strokeWidth=2;fillColor=#ffff88;" edge="1" parent="WIyWlLk6GJQsqaUBKTNV-1" source="eJkYo1yy2GzFZduPrZ3K-22" target="eJkYo1yy2GzFZduPrZ3K-75">
          <mxGeometry relative="1" as="geometry">
            <Array as="points">
              <mxPoint x="780" y="535" />
              <mxPoint x="780" y="995" />
            </Array>
          </mxGeometry>
        </mxCell>
        <mxCell id="eJkYo1yy2GzFZduPrZ3K-22" value="&lt;span style=&quot;background-color: initial;&quot;&gt;Moneda&lt;/span&gt;" style="rounded=0;whiteSpace=wrap;html=1;fontSize=14;strokeWidth=1;align=center;" vertex="1" parent="WIyWlLk6GJQsqaUBKTNV-1">
          <mxGeometry x="525" y="520" width="190" height="30" as="geometry" />
        </mxCell>
        <mxCell id="eJkYo1yy2GzFZduPrZ3K-50" style="edgeStyle=orthogonalEdgeStyle;rounded=1;orthogonalLoop=1;jettySize=auto;html=1;exitX=0;exitY=0.5;exitDx=0;exitDy=0;entryX=0.998;entryY=0.623;entryDx=0;entryDy=0;entryPerimeter=0;fontSize=14;fillColor=#e3c800;strokeColor=#C9CF21;strokeWidth=2;" edge="1" parent="WIyWlLk6GJQsqaUBKTNV-1" source="eJkYo1yy2GzFZduPrZ3K-23" target="eJkYo1yy2GzFZduPrZ3K-24">
          <mxGeometry relative="1" as="geometry" />
        </mxCell>
        <mxCell id="eJkYo1yy2GzFZduPrZ3K-23" value="&lt;span style=&quot;background-color: initial;&quot;&gt;Categoría&lt;/span&gt;" style="rounded=0;whiteSpace=wrap;html=1;fontSize=14;strokeWidth=1;align=center;" vertex="1" parent="WIyWlLk6GJQsqaUBKTNV-1">
          <mxGeometry x="525" y="560" width="190" height="30" as="geometry" />
        </mxCell>
        <mxCell id="eJkYo1yy2GzFZduPrZ3K-47" style="edgeStyle=orthogonalEdgeStyle;rounded=1;orthogonalLoop=1;jettySize=auto;html=1;exitX=0.5;exitY=1;exitDx=0;exitDy=0;entryX=0.5;entryY=0;entryDx=0;entryDy=0;fontSize=14;fillColor=#e6d0de;gradientColor=#d5739d;strokeColor=#996185;" edge="1" parent="WIyWlLk6GJQsqaUBKTNV-1" source="eJkYo1yy2GzFZduPrZ3K-24" target="eJkYo1yy2GzFZduPrZ3K-46">
          <mxGeometry relative="1" as="geometry" />
        </mxCell>
        <mxCell id="eJkYo1yy2GzFZduPrZ3K-24" value="" style="rounded=0;whiteSpace=wrap;html=1;fontSize=14;strokeWidth=2;" vertex="1" parent="WIyWlLk6GJQsqaUBKTNV-1">
          <mxGeometry x="40" y="320" width="210" height="410" as="geometry" />
        </mxCell>
        <mxCell id="eJkYo1yy2GzFZduPrZ3K-26" value="Autos" style="rounded=0;whiteSpace=wrap;html=1;fontSize=14;strokeWidth=1;" vertex="1" parent="WIyWlLk6GJQsqaUBKTNV-1">
          <mxGeometry x="60" y="370" width="170" height="30" as="geometry" />
        </mxCell>
        <mxCell id="eJkYo1yy2GzFZduPrZ3K-27" value="Juguetes" style="rounded=0;whiteSpace=wrap;html=1;fontSize=14;strokeWidth=1;" vertex="1" parent="WIyWlLk6GJQsqaUBKTNV-1">
          <mxGeometry x="60" y="410" width="170" height="30" as="geometry" />
        </mxCell>
        <mxCell id="eJkYo1yy2GzFZduPrZ3K-28" value="Muebles" style="rounded=0;whiteSpace=wrap;html=1;fontSize=14;strokeWidth=1;" vertex="1" parent="WIyWlLk6GJQsqaUBKTNV-1">
          <mxGeometry x="60" y="450" width="170" height="30" as="geometry" />
        </mxCell>
        <mxCell id="eJkYo1yy2GzFZduPrZ3K-29" value="Herramientas" style="rounded=0;whiteSpace=wrap;html=1;fontSize=14;strokeWidth=1;" vertex="1" parent="WIyWlLk6GJQsqaUBKTNV-1">
          <mxGeometry x="60" y="490" width="170" height="30" as="geometry" />
        </mxCell>
        <mxCell id="eJkYo1yy2GzFZduPrZ3K-30" value="Computadoras" style="rounded=0;whiteSpace=wrap;html=1;fontSize=14;strokeWidth=1;" vertex="1" parent="WIyWlLk6GJQsqaUBKTNV-1">
          <mxGeometry x="60" y="530" width="170" height="30" as="geometry" />
        </mxCell>
        <mxCell id="eJkYo1yy2GzFZduPrZ3K-31" value="Vestimenta" style="rounded=0;whiteSpace=wrap;html=1;fontSize=14;strokeWidth=1;" vertex="1" parent="WIyWlLk6GJQsqaUBKTNV-1">
          <mxGeometry x="60" y="569.5" width="170" height="30" as="geometry" />
        </mxCell>
        <mxCell id="eJkYo1yy2GzFZduPrZ3K-32" value="Electrodomésticos" style="rounded=0;whiteSpace=wrap;html=1;fontSize=14;strokeWidth=1;" vertex="1" parent="WIyWlLk6GJQsqaUBKTNV-1">
          <mxGeometry x="60" y="610" width="170" height="30" as="geometry" />
        </mxCell>
        <mxCell id="eJkYo1yy2GzFZduPrZ3K-33" value="Deporte" style="rounded=0;whiteSpace=wrap;html=1;fontSize=14;strokeWidth=1;" vertex="1" parent="WIyWlLk6GJQsqaUBKTNV-1">
          <mxGeometry x="60" y="650" width="170" height="30" as="geometry" />
        </mxCell>
        <mxCell id="eJkYo1yy2GzFZduPrZ3K-34" value="Celulares" style="rounded=0;whiteSpace=wrap;html=1;fontSize=14;strokeWidth=1;" vertex="1" parent="WIyWlLk6GJQsqaUBKTNV-1">
          <mxGeometry x="60" y="690" width="170" height="30" as="geometry" />
        </mxCell>
        <mxCell id="eJkYo1yy2GzFZduPrZ3K-73" style="edgeStyle=orthogonalEdgeStyle;rounded=1;sketch=0;orthogonalLoop=1;jettySize=auto;html=1;exitX=1;exitY=0.5;exitDx=0;exitDy=0;entryX=1;entryY=0.5;entryDx=0;entryDy=0;shadow=0;fontSize=14;strokeColor=#b85450;fillColor=#f8cecc;strokeWidth=2;" edge="1" parent="WIyWlLk6GJQsqaUBKTNV-1" source="eJkYo1yy2GzFZduPrZ3K-42" target="eJkYo1yy2GzFZduPrZ3K-59">
          <mxGeometry relative="1" as="geometry">
            <Array as="points">
              <mxPoint x="790" y="615" />
              <mxPoint x="790" y="1030" />
              <mxPoint x="465" y="1030" />
              <mxPoint x="465" y="1035" />
            </Array>
          </mxGeometry>
        </mxCell>
        <mxCell id="eJkYo1yy2GzFZduPrZ3K-42" value="Stock" style="rounded=0;whiteSpace=wrap;html=1;fontSize=14;strokeWidth=1;" vertex="1" parent="WIyWlLk6GJQsqaUBKTNV-1">
          <mxGeometry x="525" y="599.5" width="190" height="30" as="geometry" />
        </mxCell>
        <mxCell id="eJkYo1yy2GzFZduPrZ3K-44" value="Tipo de publicación" style="rounded=0;whiteSpace=wrap;html=1;fontSize=14;strokeWidth=2;" vertex="1" parent="WIyWlLk6GJQsqaUBKTNV-1">
          <mxGeometry x="490" y="215" width="110" height="40" as="geometry" />
        </mxCell>
        <mxCell id="eJkYo1yy2GzFZduPrZ3K-45" value="" style="edgeStyle=orthogonalEdgeStyle;rounded=0;orthogonalLoop=1;jettySize=auto;html=1;exitX=1;exitY=0.5;exitDx=0;exitDy=0;fontSize=14;endArrow=none;fillColor=#f8cecc;gradientColor=#ea6b66;strokeColor=#b85450;" edge="1" parent="WIyWlLk6GJQsqaUBKTNV-1" source="eJkYo1yy2GzFZduPrZ3K-11" target="eJkYo1yy2GzFZduPrZ3K-44">
          <mxGeometry relative="1" as="geometry">
            <mxPoint x="460" y="235" as="sourcePoint" />
            <mxPoint x="620" y="320" as="targetPoint" />
          </mxGeometry>
        </mxCell>
        <mxCell id="eJkYo1yy2GzFZduPrZ3K-46" value="" style="rounded=0;whiteSpace=wrap;html=1;fontSize=14;strokeWidth=2;glass=0;" vertex="1" parent="WIyWlLk6GJQsqaUBKTNV-1">
          <mxGeometry x="280" y="780" width="200" height="290" as="geometry" />
        </mxCell>
        <mxCell id="eJkYo1yy2GzFZduPrZ3K-49" value="Categorías" style="rounded=0;whiteSpace=wrap;html=1;fontSize=14;strokeWidth=2;" vertex="1" parent="WIyWlLk6GJQsqaUBKTNV-1">
          <mxGeometry x="40" y="320" width="210" height="30" as="geometry" />
        </mxCell>
        <mxCell id="eJkYo1yy2GzFZduPrZ3K-55" value="Productos" style="rounded=0;whiteSpace=wrap;html=1;fontSize=14;strokeWidth=2;" vertex="1" parent="WIyWlLk6GJQsqaUBKTNV-1">
          <mxGeometry x="280" y="780" width="200" height="30" as="geometry" />
        </mxCell>
        <mxCell id="eJkYo1yy2GzFZduPrZ3K-56" value="Nombre" style="rounded=0;whiteSpace=wrap;html=1;fontSize=14;strokeWidth=1;" vertex="1" parent="WIyWlLk6GJQsqaUBKTNV-1">
          <mxGeometry x="290" y="820" width="180" height="30" as="geometry" />
        </mxCell>
        <mxCell id="eJkYo1yy2GzFZduPrZ3K-57" value="Descripción" style="rounded=0;whiteSpace=wrap;html=1;fontSize=14;strokeWidth=1;" vertex="1" parent="WIyWlLk6GJQsqaUBKTNV-1">
          <mxGeometry x="290" y="900" width="180" height="30" as="geometry" />
        </mxCell>
        <mxCell id="eJkYo1yy2GzFZduPrZ3K-58" value="Costo" style="rounded=0;whiteSpace=wrap;html=1;fontSize=14;strokeWidth=1;" vertex="1" parent="WIyWlLk6GJQsqaUBKTNV-1">
          <mxGeometry x="290" y="940" width="180" height="30" as="geometry" />
        </mxCell>
        <mxCell id="eJkYo1yy2GzFZduPrZ3K-59" value="Unidades Vendidas" style="rounded=0;whiteSpace=wrap;html=1;fontSize=14;strokeWidth=1;" vertex="1" parent="WIyWlLk6GJQsqaUBKTNV-1">
          <mxGeometry x="290" y="1020" width="180" height="30" as="geometry" />
        </mxCell>
        <mxCell id="eJkYo1yy2GzFZduPrZ3K-63" value="Imagen" style="rounded=0;whiteSpace=wrap;html=1;fontSize=14;strokeWidth=1;" vertex="1" parent="WIyWlLk6GJQsqaUBKTNV-1">
          <mxGeometry x="290" y="860" width="180" height="30" as="geometry" />
        </mxCell>
        <mxCell id="eJkYo1yy2GzFZduPrZ3K-75" value="Moneda" style="rounded=0;whiteSpace=wrap;html=1;fontSize=14;strokeWidth=1;" vertex="1" parent="WIyWlLk6GJQsqaUBKTNV-1">
          <mxGeometry x="290" y="980" width="180" height="30" as="geometry" />
        </mxCell>
      </root>
    </mxGraphModel>
  </diagram>
</mxfile>
